<svg width="25" height="25" viewBox="0 0 25 25" fill="none" xmlns="http://www.w3.org/2000/svg">
<rect width="25" height="25" rx="5" fill="url(#paint0_linear)"/>
<path fill-rule="evenodd" clip-rule="evenodd" d="M18.2064 11.8382C18.8398 11.1571 19.1288 10.5672 18.9658 10.2177C18.8028 9.86815 18.1646 9.71035 17.2351 9.7579C17.6986 10.3624 18.0356 11.0691 18.2064 11.8382ZM15.9561 8.56016C15.11 7.99568 14.0934 7.66663 13 7.66663C10.2539 7.66663 7.99251 9.7421 7.69893 12.41C6.09878 13.7824 5.3017 15.2249 5.82434 16.3457C6.34693 17.4664 7.96407 17.7831 10.0436 17.4396C10.8898 18.0042 11.9065 18.3333 13 18.3333C15.7466 18.3333 18.0083 16.2571 18.3012 13.5886C19.9003 12.2166 20.6967 10.7747 20.1742 9.65426C19.6517 8.53377 18.0351 8.21699 15.9561 8.56016ZM10.3677 16.0119C9.52944 15.2787 9 14.2012 9 13C9 10.7909 10.7909 9 13 9C15.1821 9 16.9562 10.7474 16.9992 12.9192C16.1517 13.5728 15.0749 14.2389 13.8445 14.8126C12.6147 15.3861 11.4128 15.7827 10.3677 16.0119ZM12.161 16.9119C12.8907 16.6746 13.6463 16.3762 14.408 16.021C15.1702 15.6656 15.885 15.2783 16.5361 14.8715C15.8646 16.1376 14.533 17 13 17C12.7122 17 12.4315 16.9696 12.161 16.9119ZM8.76485 16.242C7.83457 16.2898 7.19585 16.132 7.03275 15.7822C6.8697 15.4326 7.15915 14.8421 7.7933 14.1605C7.96408 14.9301 8.30114 15.6372 8.76485 16.242Z" fill="white"/>
<defs>
<linearGradient id="paint0_linear" x1="1.5625" y1="-1.5625" x2="25" y2="31.25" gradientUnits="userSpaceOnUse">
<stop stop-color="#744EFF"/>
<stop offset="1" stop-color="#BA4BF2"/>
</linearGradient>
</defs>
</svg>
