<svg width="25" height="25" viewBox="0 0 25 25" fill="none" xmlns="http://www.w3.org/2000/svg">
<rect width="25" height="25" rx="5" fill="url(#paint0_linear)"/>
<path fill-rule="evenodd" clip-rule="evenodd" d="M7 15C7 16.7736 9 18.5513 13 20.3333C17 18.5555 19 16.7777 19 15C19 14.7458 19.0011 14.2027 19.0025 13.5308L19.0025 13.5298C19.0067 11.558 19.0131 8.47812 19 8.33329C19 7.82156 18.8036 7.70264 18.26 7.37349C18.0955 7.27383 17.8991 7.1549 17.6667 6.99996C16.6667 6.33329 14.9968 5.66663 13 5.66663C10.7088 5.66663 8.4412 6.92805 8.33333 6.99996C8.10093 7.15489 7.90453 7.27382 7.73996 7.37348L7.73995 7.37348L7.73995 7.37349C7.1964 7.70264 7 7.82156 7 8.33329V15ZM17.6679 14.1698C17.6671 14.5892 17.6667 14.8465 17.6667 15C17.6667 16.0095 16.1814 17.3825 13.0006 18.868C9.81941 17.3792 8.33333 16.0056 8.33333 15V8.57556L8.41854 8.52268C8.63412 8.38894 8.91509 8.21463 9.07293 8.1094C9.68576 7.70085 11.5587 7 13 7C14.5068 7 15.9429 7.45328 16.9271 8.1094C17.0849 8.21461 17.3658 8.38887 17.5813 8.5226L17.5814 8.52265L17.6731 8.57952C17.6745 8.97455 17.6751 10.2518 17.6727 11.7399L17.6706 12.8676L17.6679 14.1698ZM15 11C15.7364 11 16.3333 11.597 16.3333 12.3333V15C16.3333 15.7364 15.7364 16.3333 15 16.3333H11C10.2636 16.3333 9.66667 15.7364 9.66667 15V12.3333C9.66667 11.597 10.2636 11 11 11V9.66667C11 8.5621 11.8954 7.66667 13 7.66667C14.1046 7.66667 15 8.5621 15 9.66667V11ZM13.6667 9.66667V11H12.3333V9.66667C12.3333 9.29848 12.6318 9 13 9C13.3682 9 13.6667 9.29848 13.6667 9.66667ZM11 15V12.3333H15V15H11ZM12.3333 13.6667C12.3333 14.0349 12.6318 14.3333 13 14.3333C13.3682 14.3333 13.6667 14.0349 13.6667 13.6667C13.6667 13.2985 13.3682 13 13 13C12.6318 13 12.3333 13.2985 12.3333 13.6667Z" fill="white"/>
<defs>
<linearGradient id="paint0_linear" x1="1.5625" y1="-1.5625" x2="25" y2="31.25" gradientUnits="userSpaceOnUse">
<stop stop-color="#744EFF"/>
<stop offset="1" stop-color="#BA4BF2"/>
</linearGradient>
</defs>
</svg>
