<svg width="189" height="46" viewBox="0 0 189 46" fill="none" xmlns="http://www.w3.org/2000/svg">
<path d="M0 28.914V16.7073C0 13.9017 1.46975 11.3011 3.87331 9.85385L16.1273 2.47537C18.6578 0.951674 21.822 0.946356 24.3576 2.46154L36.0984 9.47736C38.515 10.9214 39.9947 13.5295 39.9947 16.3447V29.0264C39.9947 31.8006 38.5575 34.3767 36.1969 35.8339L24.5819 43.0036C22.0582 44.5615 18.8798 44.5953 16.3235 43.0916L3.94384 35.8094C1.50033 34.3721 0 31.7489 0 28.914Z" fill="#763DE9"/>
<path d="M19.7324 24.2206L8.09666 17.2845C6.69908 16.4514 6.69989 14.4271 8.09814 13.5951L19.7687 6.65079C20.4431 6.24953 21.2827 6.24813 21.9584 6.64714L33.3161 13.3539C34.7 14.1711 34.7284 16.1633 33.3684 17.0196L21.9758 24.1932C21.2926 24.6234 20.4259 24.634 19.7324 24.2206Z" fill="white"/>
<path d="M54.0993 22.3509V28.2415C54.0993 28.6518 54.1945 28.9521 54.385 29.1426C54.5902 29.3185 54.9272 29.4064 55.3961 29.4064H56.8248V32H54.8906C52.297 32 51.0002 30.7398 51.0002 28.2195V22.3509H49.5495V19.8232H51.0002V16.812H54.0993V19.8232H56.8248V22.3509H54.0993ZM65.8957 19.6474C66.8188 19.6474 67.6394 19.8526 68.3574 20.2628C69.0754 20.6585 69.6322 21.2519 70.0279 22.0432C70.4382 22.8198 70.6433 23.7576 70.6433 24.8566V32H67.5662V25.2742C67.5662 24.3071 67.3244 23.5671 66.8408 23.0543C66.3573 22.5267 65.6979 22.263 64.8626 22.263C64.0128 22.263 63.3387 22.5267 62.8405 23.0543C62.357 23.5671 62.1152 24.3071 62.1152 25.2742V32H59.038V15.735H62.1152V21.3398C62.5108 20.8123 63.0383 20.402 63.6977 20.109C64.3571 19.8013 65.0898 19.6474 65.8957 19.6474ZM78.9765 32.1978C77.8043 32.1978 76.7493 31.9414 75.8115 31.4285C74.8737 30.901 74.1337 30.161 73.5915 29.2086C73.064 28.2561 72.8002 27.1571 72.8002 25.9116C72.8002 24.6661 73.0713 23.5671 73.6135 22.6147C74.1703 21.6622 74.9249 20.9296 75.8774 20.4167C76.8299 19.8892 77.8922 19.6254 79.0645 19.6254C80.2367 19.6254 81.2991 19.8892 82.2515 20.4167C83.204 20.9296 83.9513 21.6622 84.4934 22.6147C85.0503 23.5671 85.3287 24.6661 85.3287 25.9116C85.3287 27.1571 85.0429 28.2561 84.4715 29.2086C83.9146 30.161 83.1527 30.901 82.1856 31.4285C81.2331 31.9414 80.1634 32.1978 78.9765 32.1978ZM78.9765 29.5163C79.5334 29.5163 80.0535 29.3844 80.5371 29.1207C81.0353 28.8422 81.4309 28.432 81.724 27.8898C82.0171 27.3476 82.1636 26.6882 82.1636 25.9116C82.1636 24.754 81.8559 23.8675 81.2404 23.2521C80.6397 22.622 79.8997 22.307 79.0205 22.307C78.1413 22.307 77.4013 22.622 76.8005 23.2521C76.2144 23.8675 75.9214 24.754 75.9214 25.9116C75.9214 27.0692 76.2071 27.9631 76.7786 28.5931C77.3647 29.2086 78.0973 29.5163 78.9765 29.5163ZM99.0813 19.8232V32H95.9821V30.4614C95.5865 30.9889 95.0663 31.4065 94.4216 31.7143C93.7915 32.0073 93.1028 32.1539 92.3555 32.1539C91.403 32.1539 90.5605 31.956 89.8278 31.5604C89.0952 31.1501 88.5164 30.5567 88.0914 29.7801C87.6811 28.9888 87.476 28.051 87.476 26.9666V19.8232H90.5531V26.5271C90.5531 27.4942 90.7949 28.2415 91.2785 28.769C91.762 29.2818 92.4214 29.5383 93.2566 29.5383C94.1065 29.5383 94.7732 29.2818 95.2568 28.769C95.7403 28.2415 95.9821 27.4942 95.9821 26.5271V19.8232H99.0813ZM106.887 19.6254C107.795 19.6254 108.594 19.8086 109.283 20.1749C109.971 20.5266 110.514 20.9882 110.909 21.5596V19.8232H114.008V32.0879C114.008 33.2162 113.781 34.2199 113.327 35.0991C112.873 35.993 112.191 36.6963 111.283 37.2092C110.374 37.7367 109.275 38.0005 107.986 38.0005C106.257 38.0005 104.836 37.5975 103.722 36.7916C102.623 35.9857 102 34.8867 101.854 33.4946H104.909C105.07 34.0514 105.414 34.491 105.942 34.8134C106.484 35.1504 107.136 35.3189 107.898 35.3189C108.792 35.3189 109.517 35.0479 110.074 34.5057C110.631 33.9782 110.909 33.1723 110.909 32.0879V30.1977C110.514 30.7691 109.964 31.2454 109.261 31.6263C108.572 32.0073 107.781 32.1978 106.887 32.1978C105.861 32.1978 104.923 31.9341 104.074 31.4065C103.224 30.879 102.55 30.1391 102.051 29.1866C101.568 28.2195 101.326 27.1132 101.326 25.8677C101.326 24.6368 101.568 23.5451 102.051 22.5927C102.55 21.6402 103.216 20.9076 104.052 20.3947C104.901 19.8819 105.847 19.6254 106.887 19.6254ZM110.909 25.9116C110.909 25.1643 110.763 24.5269 110.47 23.9994C110.177 23.4572 109.781 23.0469 109.283 22.7685C108.785 22.4755 108.25 22.3289 107.678 22.3289C107.107 22.3289 106.579 22.4681 106.096 22.7465C105.612 23.025 105.217 23.4352 104.909 23.9774C104.616 24.5049 104.469 25.135 104.469 25.8677C104.469 26.6003 104.616 27.2451 104.909 27.8019C105.217 28.344 105.612 28.7617 106.096 29.0547C106.594 29.3478 107.121 29.4943 107.678 29.4943C108.25 29.4943 108.785 29.3551 109.283 29.0767C109.781 28.7836 110.177 28.3733 110.47 27.8458C110.763 27.3037 110.909 26.6589 110.909 25.9116ZM123.871 19.6474C124.795 19.6474 125.615 19.8526 126.333 20.2628C127.051 20.6585 127.608 21.2519 128.004 22.0432C128.414 22.8198 128.619 23.7576 128.619 24.8566V32H125.542V25.2742C125.542 24.3071 125.3 23.5671 124.817 23.0543C124.333 22.5267 123.674 22.263 122.838 22.263C121.989 22.263 121.314 22.5267 120.816 23.0543C120.333 23.5671 120.091 24.3071 120.091 25.2742V32H117.014V15.735H120.091V21.3398C120.487 20.8123 121.014 20.402 121.673 20.109C122.333 19.8013 123.066 19.6474 123.871 19.6474ZM135.128 22.3509V28.2415C135.128 28.6518 135.223 28.9521 135.414 29.1426C135.619 29.3185 135.956 29.4064 136.425 29.4064H137.853V32H135.919C133.326 32 132.029 30.7398 132.029 28.2195V22.3509H130.578V19.8232H132.029V16.812H135.128V19.8232H137.853V22.3509H135.128ZM148.771 24.1313C149.635 24.2925 150.346 24.7247 150.903 25.4281C151.46 26.1314 151.738 26.9373 151.738 27.8458C151.738 28.6664 151.533 29.3917 151.122 30.0218C150.727 30.6373 150.148 31.1208 149.386 31.4725C148.624 31.8242 147.723 32 146.683 32H140.067V16.6582H146.397C147.437 16.6582 148.331 16.8267 149.078 17.1637C149.84 17.5007 150.412 17.9696 150.793 18.5704C151.188 19.1712 151.386 19.8526 151.386 20.6145C151.386 21.5084 151.144 22.2557 150.661 22.8564C150.192 23.4572 149.562 23.8822 148.771 24.1313ZM143.144 22.9883H145.957C146.69 22.9883 147.254 22.8271 147.65 22.5048C148.045 22.1677 148.243 21.6915 148.243 21.0761C148.243 20.4607 148.045 19.9844 147.65 19.6474C147.254 19.3104 146.69 19.1419 145.957 19.1419H143.144V22.9883ZM146.243 29.4943C146.99 29.4943 147.569 29.3185 147.979 28.9668C148.404 28.6151 148.617 28.1169 148.617 27.4722C148.617 26.8128 148.397 26.2999 147.957 25.9336C147.518 25.5526 146.924 25.3621 146.177 25.3621H143.144V29.4943H146.243ZM159.597 32.1978C158.425 32.1978 157.37 31.9414 156.432 31.4285C155.495 30.901 154.755 30.161 154.212 29.2086C153.685 28.2561 153.421 27.1571 153.421 25.9116C153.421 24.6661 153.692 23.5671 154.234 22.6147C154.791 21.6622 155.546 20.9296 156.498 20.4167C157.451 19.8892 158.513 19.6254 159.685 19.6254C160.858 19.6254 161.92 19.8892 162.872 20.4167C163.825 20.9296 164.572 21.6622 165.114 22.6147C165.671 23.5671 165.95 24.6661 165.95 25.9116C165.95 27.1571 165.664 28.2561 165.092 29.2086C164.535 30.161 163.774 30.901 162.806 31.4285C161.854 31.9414 160.784 32.1978 159.597 32.1978ZM159.597 29.5163C160.154 29.5163 160.674 29.3844 161.158 29.1207C161.656 28.8422 162.052 28.432 162.345 27.8898C162.638 27.3476 162.784 26.6882 162.784 25.9116C162.784 24.754 162.477 23.8675 161.861 23.2521C161.261 22.622 160.521 22.307 159.641 22.307C158.762 22.307 158.022 22.622 157.421 23.2521C156.835 23.8675 156.542 24.754 156.542 25.9116C156.542 27.0692 156.828 27.9631 157.399 28.5931C157.986 29.2086 158.718 29.5163 159.597 29.5163ZM174.933 32L172.427 28.2195L170.207 32H166.91L170.888 25.8896L166.866 19.8232H170.339L172.822 23.5818L175.064 19.8232H178.361L174.361 25.8896L178.405 32H174.933Z" fill="white"/>
</svg>
