<svg width="25" height="26" viewBox="0 0 25 26" fill="none" xmlns="http://www.w3.org/2000/svg">
<rect y="0.958252" width="25" height="25" rx="5" fill="url(#paint0_linear)"/>
<g clip-path="url(#clip0)">
<path d="M11.7104 14.9845C13.9131 15.0125 15.5033 15.4452 16.8969 16.5044C17.5403 16.9933 17.7988 17.6142 17.4054 18.3335C16.9896 19.0864 16.2254 19.1595 15.5764 18.7802C13.354 17.4737 11.1878 17.4513 8.95982 18.7633C8.31923 19.1426 7.54097 19.1342 7.10549 18.3981C6.62224 17.5777 6.92286 16.8332 7.69831 16.3583C9.06658 15.5183 10.536 14.9451 11.7104 14.9845Z" fill="white"/>
<path d="M18.6304 12.2479C17.3914 12.1271 16.231 11.5961 15.3432 10.551C14.8712 9.99466 14.7925 9.34283 15.2758 8.76406C15.8152 8.11785 16.512 8.13471 17.1498 8.6011C17.7988 9.07311 18.4506 9.47207 19.2457 9.66313C19.9537 9.8317 20.4061 10.3318 20.274 11.096C20.1364 11.9024 19.5379 12.2311 18.6304 12.2479Z" fill="white"/>
<path d="M5.78265 12.2375C4.9763 12.2824 4.39752 11.9369 4.20928 11.153C4.02104 10.3719 4.48743 9.89991 5.1814 9.69481C6.0018 9.45318 6.71262 9.04579 7.40097 8.5485C7.9966 8.11863 8.64843 8.1383 9.16539 8.71426C9.67393 9.2818 9.65707 9.93924 9.1682 10.4899C8.27475 11.5014 7.17059 12.1588 5.78265 12.2375Z" fill="white"/>
</g>
<defs>
<linearGradient id="paint0_linear" x1="1.5625" y1="-0.604249" x2="25" y2="32.2083" gradientUnits="userSpaceOnUse">
<stop stop-color="#744EFF"/>
<stop offset="1" stop-color="#BA4BF2"/>
</linearGradient>
<clipPath id="clip0">
<rect width="16.1299" height="10.7635" fill="white" transform="translate(4.16667 8.24988)"/>
</clipPath>
</defs>
</svg>
