<svg width="25" height="25" viewBox="0 0 25 25" fill="none" xmlns="http://www.w3.org/2000/svg">
<rect width="25" height="25" rx="5" fill="url(#paint0_linear)"/>
<g clip-path="url(#clip0)">
<path d="M12.6926 18.7499C11.1646 18.7499 9.78015 18.2875 8.46888 17.5391C7.69133 17.0955 7.33371 16.4834 7.74551 15.6628C8.14919 14.8556 8.92945 14.8236 9.60134 15.2218C11.7118 16.47 13.7763 16.3658 15.8705 15.2191C16.6074 14.8155 17.2821 14.9171 17.6993 15.7056C18.084 16.4326 17.767 16.9778 17.1385 17.4082C15.8001 18.3223 14.3127 18.7499 12.6926 18.7499Z" fill="white"/>
<path d="M19.2029 9.22939C19.1894 10.2477 18.3414 11.0603 17.2793 11.0763C16.1767 11.0897 15.2799 10.213 15.3043 9.14119C15.326 8.10414 16.1767 7.28092 17.2143 7.29161C18.3224 7.3023 19.2192 8.17363 19.2029 9.22939Z" fill="white"/>
<path d="M10.0565 9.19004C10.0619 10.2458 9.28975 11.0476 8.23044 11.0851C7.1359 11.1252 6.24185 10.2725 6.24998 9.19538C6.25811 8.14764 7.04921 7.32976 8.08956 7.29502C9.20306 7.26027 10.051 8.07548 10.0565 9.19004Z" fill="white"/>
</g>
<defs>
<linearGradient id="paint0_linear" x1="1.5625" y1="-1.5625" x2="25" y2="31.25" gradientUnits="userSpaceOnUse">
<stop stop-color="#744EFF"/>
<stop offset="1" stop-color="#BA4BF2"/>
</linearGradient>
<clipPath id="clip0">
<rect width="12.9529" height="11.4583" fill="white" transform="translate(6.25 7.29163)"/>
</clipPath>
</defs>
</svg>
